<?xml version="1.0" standalone="no"?>
<!DOCTYPE svg PUBLIC "-//W3C//DTD SVG 20010904//EN"
 "http://www.w3.org/TR/2001/REC-SVG-20010904/DTD/svg10.dtd">
<svg version="1.0" xmlns="http://www.w3.org/2000/svg"
 width="512.000000pt" height="512.000000pt" viewBox="0 0 512.000000 512.000000"
 preserveAspectRatio="xMidYMid meet">

<g transform="translate(0.000000,512.000000) scale(0.100000,-0.100000)"
fill="#000000" stroke="none">
<path d="M2100 4294 c-14 -2 -70 -11 -125 -20 -484 -77 -1001 -360 -1505 -826
-229 -212 -263 -264 -205 -318 51 -48 70 -38 242 131 593 579 1202 879 1784
879 265 0 514 -68 844 -230 314 -154 599 -363 929 -681 l129 -124 319 0 320 0
24 28 c29 34 31 66 3 101 l-20 26 -291 0 -290 0 -144 140 c-462 447 -1008 765
-1499 871 -78 16 -142 22 -295 24 -107 2 -206 1 -220 -1z"/>
<path d="M2037 3840 c-224 -41 -487 -150 -704 -292 -261 -172 -555 -450 -751
-712 -67 -89 -68 -113 -7 -194 143 -190 360 -411 563 -574 l112 -91 0 -558 c0
-546 0 -559 20 -579 30 -30 83 -30 115 1 19 19 20 35 23 490 l3 470 87 -80
c379 -348 847 -610 1327 -744 288 -80 542 -112 844 -105 191 5 212 7 286 32
176 60 332 191 406 341 37 75 43 96 47 168 5 103 -10 178 -53 265 -132 264
-482 357 -737 195 -136 -85 -238 -267 -238 -424 0 -74 76 -115 130 -71 18 15
25 34 31 86 21 173 138 299 303 326 151 24 304 -57 374 -200 23 -47 27 -68 27
-140 0 -70 -4 -93 -24 -132 -54 -105 -177 -209 -306 -258 -53 -20 -83 -24
-250 -28 -614 -14 -1215 181 -1775 577 -50 35 -89 66 -87 68 3 2 42 -7 88 -21
194 -56 437 -66 629 -27 470 97 913 390 1352 893 l121 138 423 0 423 0 20 26
c27 34 27 64 0 98 l-20 26 -427 0 -427 0 -70 87 c-97 120 -360 382 -480 478
-281 225 -564 374 -855 452 -135 35 -386 42 -543 13z m431 -156 c351 -71 726
-288 1069 -618 119 -114 306 -323 301 -337 -8 -21 -193 -220 -314 -339 -235
-229 -408 -356 -635 -464 -246 -118 -411 -159 -629 -159 -237 0 -397 45 -650
182 -236 127 -379 233 -584 431 -121 117 -316 336 -316 355 0 20 170 212 296
336 347 338 718 552 1064 612 115 20 302 21 398 1z"/>
<path d="M2120 3546 c-266 -57 -484 -228 -594 -468 -57 -122 -70 -186 -70
-343 -1 -167 18 -248 92 -390 38 -73 66 -109 147 -191 83 -83 115 -108 190
-146 137 -70 209 -89 355 -95 141 -6 223 7 336 53 116 46 185 93 284 193 77
77 105 113 142 186 63 123 88 216 95 351 12 246 -79 472 -261 641 -108 100
-213 158 -362 198 -81 23 -272 28 -354 11z m295 -161 c85 -18 212 -79 280
-135 305 -253 327 -708 49 -986 -69 -70 -169 -132 -264 -165 -55 -20 -86 -23
-200 -24 -115 0 -145 3 -205 23 -389 129 -575 565 -396 927 68 137 169 238
306 306 134 66 283 85 430 54z"/>
<path d="M2439 3237 c-32 -17 -52 -21 -74 -16 -53 12 -138 9 -204 -6 -260 -62
-426 -324 -370 -587 38 -179 193 -337 369 -377 110 -26 254 -7 354 47 64 34
163 132 198 198 52 97 74 252 48 345 -8 30 -7 44 10 80 55 121 -5 273 -127
324 -55 23 -152 19 -204 -8z m168 -159 c16 -14 23 -33 23 -57 0 -97 -130 -112
-163 -18 -8 22 8 66 31 83 27 21 83 17 109 -8z m-301 -66 c2 -132 108 -235
243 -236 l63 0 -4 -67 c-9 -119 -78 -221 -190 -281 -37 -20 -58 -23 -143 -23
-92 0 -104 2 -153 30 -220 121 -245 411 -50 568 46 37 129 66 188 67 l45 0 1
-58z"/>
</g>
</svg>
